- 
http://www.Speed.Cd 
       
http://www.Speed.Cd       the fast  and The Hottest Private Tracker on the net

(((--Registration will be open on june every weekend--)))

Please Seed back to make the speed Faster!!!

------------------nfo--------------------------
-








































          
          
              
              
                    
                    
                    
                    

Quarantine.2.Terminal.DVDRiP.XviD-SiC

Poster:
[img]http://leetleech.org/images/50534201268611803020.jpeg[/img]

IMDB Link:
http://www.imdb.com/title/tt1699231/

Description:
A plane is taken over by a mysterious virus. When the plane lands it is placed under quarantine. Now a group of survivors must band together to survive the quarantine. 

Mediainfo:
General
Complete name                    : Quarantine.2.Terminal.2011.DVDRiP.XviD-SiC.avi
Format                           : AVI
Format/Info                      : Audio Video Interleave
File size                        : 1.31 GiB
Duration                         : 1h 26mn
Overall bit rate                 : 2 167 Kbps

Video
ID                               : 0
Format                           : MPEG-4 Visual
Format profile                   : Advanced Simple@L5
Format settings, BVOP            : 1
Format settings, QPel            : No
Format settings, GMC             : No warppoints
Format settings, Matrix          : Default (H.263)
Codec ID                         : XVID
Codec ID/Hint                    : XviD
Duration                         : 1h 26mn
Bit rate                         : 1 711 Kbps
Width                            : 720 pixels
Height                           : 480 pixels
Display aspect ratio             : 16:9
Frame rate                       : 23.976 fps
Standard                         : NTSC
Color space                      : YUV
Chroma subsampling               : 4:2:0
Bit depth                        : 8 bits
Scan type                        : Progressive
Compression mode                 : Lossy
Bits/(Pixel*Frame)               : 0.206
Stream size                      : 1.03 GiB (79%)
Writing library                  : XviD 1.2.1 (UTC 2008-12-04)

Audio
ID                               : 1
Format                           : AC-3
Format/Info                      : Audio Coding 3
Mode extension                   : CM (complete main)
Codec ID                         : 2000
Duration                         : 1h 26mn
Bit rate mode                    : Constant
Bit rate                         : 448 Kbps
Channel(s)                       : 6 channels
Channel positions                : Front: L C R, Side: L R, LFE
Sampling rate                    : 48.0 KHz
Bit depth                        : 16 bits
Compression mode                 : Lossy
Stream size                      : 277 MiB (21%)
Alignment                        : Aligned on interleaves
Interleave, duration             : 64 ms (1.53 video frames)
Interleave, preload duration     : 192 ms
Title                            : VTS_01_1 T80 3_2ch 448Kbps DELAY 0ms






Screenshots:
[img]http://leetleech.org/images/01199632225520825626.png[/img]
[img]http://leetleech.org/images/89694033349616776330.png[/img]
[img]http://leetleech.org/images/35921810113827523404.png[/img]
[img]http://leetleech.org/images/13620506413889176462.png[/img]
[img]http://leetleech.org/images/66739539049151743668.png[/img]

Note: Nothing of note. We released a VODRiP of this one not too long ago, so here's the retail. Enjoy!

Encoder: thefuzz


Respects to CaptainHomey, Cyanide, CM8, Rx, THC, ELEKTRI4KA, Killerhz, XtremE, PA, YeFsTe and everyone in the struggle...